HIERARCHY
ROOT Hips
{
    OFFSET 0.00 0.00 0.00
    CHANNELS 6 Xposition Yposition Zposition Zrotation Xrotation Yrotation
    JOINT Spine
    {
        OFFSET 0.00 5.21 0.00
        CHANNELS 3 Zrotation Xrotation Yrotation
        JOINT Spine1
        {
            OFFSET 0.00 5.41 0.00
            CHANNELS 3 Zrotation Xrotation Yrotation
            JOINT Neck
            {
                OFFSET 0.00 11.10 0.00
                CHANNELS 3 Zrotation Xrotation Yrotation
                JOINT Head
                {
                    OFFSET 0.00 4.97 0.00
                    CHANNELS 3 Zrotation Xrotation Yrotation
                    End Site
                    {
                        OFFSET 0.00 8.91 0.00
                    }
                }
            }
            JOINT LeftArm
            {
                OFFSET 5.49 0.00 0.00
                CHANNELS 3 Zrotation Xrotation Yrotation
                JOINT LeftForeArm
                {
                    OFFSET 9.46 0.00 0.00
                    CHANNELS 3 Zrotation Xrotation Yrotation
                    JOINT LeftHand
                    {
                        OFFSET 9.21 0.00 0.00
                        CHANNELS 3 Zrotation Xrotation Yrotation
                        End Site
                        {
                            OFFSET 4.00 0.00 0.00
                        }
                    }
                }
            }
            JOINT RightArm
            {
                OFFSET -5.49 0.00 0.00
                CHANNELS 3 Zrotation Xrotation Yrotation
                JOINT RightForeArm
                {
                    OFFSET -9.46 0.00 0.00
                    CHANNELS 3 Zrotation Xrotation Yrotation
                    JOINT RightHand
                    {
                        OFFSET -9.21 0.00 0.00
                        CHANNELS 3 Zrotation Xrotation Yrotation
                        End Site
                        {
                            OFFSET -4.00 0.00 0.00
                        }
                    }
                }
            }
        }
    }
    JOINT LeftUpLeg
    {
        OFFSET 3.91 0.00 0.00
        CHANNELS 3 Zrotation Xrotation Yrotation
        JOINT LeftLeg
        {
            OFFSET 0.00 -18.34 0.00
            CHANNELS 3 Zrotation Xrotation Yrotation
            JOINT LeftFoot
            {
                OFFSET 0.00 -17.37 0.00
                CHANNELS 3 Zrotation Xrotation Yrotation
                End Site
                {
                    OFFSET 0.00 -3.46 0.00
                }
            }
        }
    }
    JOINT RightUpLeg
    {
        OFFSET -3.91 0.00 0.00
        CHANNELS 3 Zrotation Xrotation Yrotation
        JOINT RightLeg
        {
            OFFSET 0.00 -18.34 0.00
            CHANNELS 3 Zrotation Xrotation Yrotation
            JOINT RightFoot
            {
                OFFSET 0.00 -17.37 0.00
                CHANNELS 3 Zrotation Xrotation Yrotation
                End Site
                {
                    OFFSET 0.00 -3.46 0.00
                }
            }
        }
    }
}
MOTION
Frames: 25
Frame Time: 0.033333
0.0000 0.0000 0.0000 0.0000 0.0000 0.0000 -0.0000 0.0000 0.0000 -0.0000 0.0000 0.0000 0.0000 0.0000 0.0000 0.0000 0.0000 0.0000 0.0000 -0.0000 0.0000 0.0000 0.0000 0.0000 0.0000 0.0000 0.0000 0.0000 0.0000 0.0000 0.0000 0.0000 0.0000 0.0000 0.0000 0.0000 0.0000 0.0000 0.0000 0.0000 0.0000 0.0000 0.0000 -0.0000 0.0000 0.0000 -0.0000 0.0000 0.0000 -60.0000 0.0000 0.0000 0.0000 0.0000
0.0000 0.1568 0.0000 0.3136 0.0000 0.0000 -0.1568 0.0000 0.0000 -0.2613 0.0000 0.0000 0.0000 0.0000 0.0000 0.0000 0.0000 0.0000 0.0000 -2.0906 0.0000 0.0000 0.6272 0.0000 0.0000 0.0000 0.0000 0.0000 2.0906 0.0000 0.0000 0.0000 0.0000 0.0000 0.0000 0.0000 0.0000 3.1359 0.0000 0.0000 -0.0822 0.0000 0.0000 -0.9408 0.0000 0.0000 -3.1359 0.0000 0.0000 -59.7535 0.0000 0.0000 0.9408 0.0000
0.0000 0.3119 0.0000 0.6237 0.0000 0.0000 -0.3119 0.0000 0.0000 -0.5198 0.0000 0.0000 0.0000 0.0000 0.0000 0.0000 0.0000 0.0000 0.0000 -4.1582 0.0000 0.0000 1.2475 0.0000 0.0000 0.0000 0.0000 0.0000 4.1582 0.0000 0.0000 0.0000 0.0000 0.0000 0.0000 0.0000 0.0000 6.2374 0.0000 0.0000 -0.3278 0.0000 0.0000 -1.8712 0.0000 0.0000 -6.2374 0.0000 0.0000 -59.0166 0.0000 0.0000 1.8712 0.0000
0.0000 0.4635 0.0000 0.9271 0.0000 0.0000 -0.4635 0.0000 0.0000 -0.7725 0.0000 0.0000 0.0000 0.0000 0.0000 0.0000 0.0000 0.0000 0.0000 -6.1803 0.0000 0.0000 1.8541 0.0000 0.0000 0.0000 0.0000 0.0000 6.1803 0.0000 0.0000 0.0000 0.0000 0.0000 0.0000 0.0000 0.0000 9.2705 0.0000 0.0000 -0.7342 0.0000 0.0000 -2.7812 0.0000 0.0000 -9.2705 0.0000 0.0000 -57.7975 0.0000 0.0000 2.7812 0.0000
0.0000 0.6101 0.0000 1.2202 0.0000 0.0000 -0.6101 0.0000 0.0000 -1.0168 0.0000 0.0000 0.0000 0.0000 0.0000 0.0000 0.0000 0.0000 0.0000 -8.1347 0.0000 0.0000 2.4404 0.0000 0.0000 0.0000 0.0000 0.0000 8.1347 0.0000 0.0000 0.0000 0.0000 0.0000 0.0000 0.0000 0.0000 12.2021 0.0000 0.0000 -1.2968 0.0000 0.0000 -3.6606 0.0000 0.0000 -12.2021 0.0000 0.0000 -56.1095 0.0000 0.0000 3.6606 0.0000
0.0000 0.7500 0.0000 1.5000 0.0000 0.0000 -0.7500 0.0000 0.0000 -1.2500 0.0000 0.0000 0.0000 0.0000 0.0000 0.0000 0.0000 0.0000 0.0000 -10.0000 0.0000 0.0000 3.0000 0.0000 0.0000 0.0000 0.0000 0.0000 10.0000 0.0000 0.0000 0.0000 0.0000 0.0000 0.0000 0.0000 0.0000 15.0000 0.0000 0.0000 -2.0096 0.0000 0.0000 -4.5000 0.0000 0.0000 -15.0000 0.0000 0.0000 -53.9711 0.0000 0.0000 4.5000 0.0000
0.0000 0.8817 0.0000 1.7634 0.0000 0.0000 -0.8817 0.0000 0.0000 -1.4695 0.0000 0.0000 0.0000 0.0000 0.0000 0.0000 0.0000 0.0000 0.0000 -11.7557 0.0000 0.0000 3.5267 0.0000 0.0000 0.0000 0.0000 0.0000 11.7557 0.0000 0.0000 0.0000 0.0000 0.0000 0.0000 0.0000 0.0000 17.6336 0.0000 0.0000 -2.8647 0.0000 0.0000 -5.2901 0.0000 0.0000 -17.6336 0.0000 0.0000 -51.4058 0.0000 0.0000 5.2901 0.0000
0.0000 1.0037 0.0000 2.0074 0.0000 0.0000 -1.0037 0.0000 0.0000 -1.6728 0.0000 0.0000 0.0000 0.0000 0.0000 0.0000 0.0000 0.0000 0.0000 -13.3826 0.0000 0.0000 4.0148 0.0000 0.0000 0.0000 0.0000 0.0000 13.3826 0.0000 0.0000 0.0000 0.0000 0.0000 0.0000 0.0000 0.0000 20.0739 0.0000 0.0000 -3.8528 0.0000 0.0000 -6.0222 0.0000 0.0000 -20.0739 0.0000 0.0000 -48.4415 0.0000 0.0000 6.0222 0.0000
0.0000 1.1147 0.0000 2.2294 0.0000 0.0000 -1.1147 0.0000 0.0000 -1.8579 0.0000 0.0000 0.0000 0.0000 0.0000 0.0000 0.0000 0.0000 0.0000 -14.8629 0.0000 0.0000 4.4589 0.0000 0.0000 0.0000 0.0000 0.0000 14.8629 0.0000 0.0000 0.0000 0.0000 0.0000 0.0000 0.0000 0.0000 22.2943 0.0000 0.0000 -4.9630 0.0000 0.0000 -6.6883 0.0000 0.0000 -22.2943 0.0000 0.0000 -45.1109 0.0000 0.0000 6.6883 0.0000
0.0000 1.2135 0.0000 2.4271 0.0000 0.0000 -1.2135 0.0000 0.0000 -2.0225 0.0000 0.0000 0.0000 0.0000 0.0000 0.0000 0.0000 0.0000 0.0000 -16.1803 0.0000 0.0000 4.8541 0.0000 0.0000 0.0000 0.0000 0.0000 16.1803 0.0000 0.0000 0.0000 0.0000 0.0000 0.0000 0.0000 0.0000 24.2705 0.0000 0.0000 -6.1832 0.0000 0.0000 -7.2812 0.0000 0.0000 -24.2705 0.0000 0.0000 -41.4503 0.0000 0.0000 7.2812 0.0000
0.0000 1.2990 0.0000 2.5981 0.0000 0.0000 -1.2990 0.0000 0.0000 -2.1651 0.0000 0.0000 0.0000 0.0000 0.0000 0.0000 0.0000 0.0000 0.0000 -17.3205 0.0000 0.0000 5.1962 0.0000 0.0000 0.0000 0.0000 0.0000 17.3205 0.0000 0.0000 0.0000 0.0000 0.0000 0.0000 0.0000 0.0000 25.9808 0.0000 0.0000 -7.5000 0.0000 0.0000 -7.7942 0.0000 0.0000 -25.9808 0.0000 0.0000 -37.5000 0.0000 0.0000 7.7942 0.0000
0.0000 1.3703 0.0000 2.7406 0.0000 0.0000 -1.3703 0.0000 0.0000 -2.2839 0.0000 0.0000 0.0000 0.0000 0.0000 0.0000 0.0000 0.0000 0.0000 -18.2709 0.0000 0.0000 5.4813 0.0000 0.0000 0.0000 0.0000 0.0000 18.2709 0.0000 0.0000 0.0000 0.0000 0.0000 0.0000 0.0000 0.0000 27.4064 0.0000 0.0000 -8.8990 0.0000 0.0000 -8.2219 0.0000 0.0000 -27.4064 0.0000 0.0000 -33.3031 0.0000 0.0000 8.2219 0.0000
0.0000 1.4266 0.0000 2.8532 0.0000 0.0000 -1.4266 0.0000 0.0000 -2.3776 0.0000 0.0000 0.0000 0.0000 0.0000 0.0000 0.0000 0.0000 0.0000 -19.0211 0.0000 0.0000 5.7063 0.0000 0.0000 0.0000 0.0000 0.0000 19.0211 0.0000 0.0000 0.0000 0.0000 0.0000 0.0000 0.0000 0.0000 28.5317 0.0000 0.0000 -10.3647 0.0000 0.0000 -8.5595 0.0000 0.0000 -28.5317 0.0000 0.0000 -28.9058 0.0000 0.0000 8.5595 0.0000
0.0000 1.4672 0.0000 2.9344 0.0000 0.0000 -1.4672 0.0000 0.0000 -2.4454 0.0000 0.0000 0.0000 0.0000 0.0000 0.0000 0.0000 0.0000 0.0000 -19.5630 0.0000 0.0000 5.8689 0.0000 0.0000 0.0000 0.0000 0.0000 19.5630 0.0000 0.0000 0.0000 0.0000 0.0000 0.0000 0.0000 0.0000 29.3444 0.0000 0.0000 -11.8813 0.0000 0.0000 -8.8033 0.0000 0.0000 -29.3444 0.0000 0.0000 -24.3560 0.0000 0.0000 8.8033 0.0000
0.0000 1.4918 0.0000 2.9836 0.0000 0.0000 -1.4918 0.0000 0.0000 -2.4863 0.0000 0.0000 0.0000 0.0000 0.0000 0.0000 0.0000 0.0000 0.0000 -19.8904 0.0000 0.0000 5.9671 0.0000 0.0000 0.0000 0.0000 0.0000 19.8904 0.0000 0.0000 0.0000 0.0000 0.0000 0.0000 0.0000 0.0000 29.8357 0.0000 0.0000 -13.4321 0.0000 0.0000 -8.9507 0.0000 0.0000 -29.8357 0.0000 0.0000 -19.7038 0.0000 0.0000 8.9507 0.0000
0.0000 1.5000 0.0000 3.0000 0.0000 0.0000 -1.5000 0.0000 0.0000 -2.5000 0.0000 0.0000 0.0000 0.0000 0.0000 0.0000 0.0000 0.0000 0.0000 -20.0000 0.0000 0.0000 6.0000 0.0000 0.0000 0.0000 0.0000 0.0000 20.0000 0.0000 0.0000 0.0000 0.0000 0.0000 0.0000 0.0000 0.0000 30.0000 0.0000 0.0000 -15.0000 0.0000 0.0000 -9.0000 0.0000 0.0000 -30.0000 0.0000 0.0000 -15.0000 0.0000 0.0000 9.0000 0.0000
0.0000 1.4918 0.0000 2.9836 0.0000 0.0000 -1.4918 0.0000 0.0000 -2.4863 0.0000 0.0000 0.0000 0.0000 0.0000 0.0000 0.0000 0.0000 0.0000 -19.8904 0.0000 0.0000 5.9671 0.0000 0.0000 0.0000 0.0000 0.0000 19.8904 0.0000 0.0000 0.0000 0.0000 0.0000 0.0000 0.0000 0.0000 29.8357 0.0000 0.0000 -16.5679 0.0000 0.0000 -8.9507 0.0000 0.0000 -29.8357 0.0000 0.0000 -10.2962 0.0000 0.0000 8.9507 0.0000
0.0000 1.4672 0.0000 2.9344 0.0000 0.0000 -1.4672 0.0000 0.0000 -2.4454 0.0000 0.0000 0.0000 0.0000 0.0000 0.0000 0.0000 0.0000 0.0000 -19.5630 0.0000 0.0000 5.8689 0.0000 0.0000 0.0000 0.0000 0.0000 19.5630 0.0000 0.0000 0.0000 0.0000 0.0000 0.0000 0.0000 0.0000 29.3444 0.0000 0.0000 -18.1187 0.0000 0.0000 -8.8033 0.0000 0.0000 -29.3444 0.0000 0.0000 -5.6440 0.0000 0.0000 8.8033 0.0000
0.0000 1.4266 0.0000 2.8532 0.0000 0.0000 -1.4266 0.0000 0.0000 -2.3776 0.0000 0.0000 0.0000 0.0000 0.0000 0.0000 0.0000 0.0000 0.0000 -19.0211 0.0000 0.0000 5.7063 0.0000 0.0000 0.0000 0.0000 0.0000 19.0211 0.0000 0.0000 0.0000 0.0000 0.0000 0.0000 0.0000 0.0000 28.5317 0.0000 0.0000 -19.6353 0.0000 0.0000 -8.5595 0.0000 0.0000 -28.5317 0.0000 0.0000 -1.0942 0.0000 0.0000 8.5595 0.0000
0.0000 1.3703 0.0000 2.7406 0.0000 0.0000 -1.3703 0.0000 0.0000 -2.2839 0.0000 0.0000 0.0000 0.0000 0.0000 0.0000 0.0000 0.0000 0.0000 -18.2709 0.0000 0.0000 5.4813 0.0000 0.0000 0.0000 0.0000 0.0000 18.2709 0.0000 0.0000 0.0000 0.0000 0.0000 0.0000 0.0000 0.0000 27.4064 0.0000 0.0000 -21.1010 0.0000 0.0000 -8.2219 0.0000 0.0000 -27.4064 0.0000 0.0000 0.0000 0.0000 0.0000 8.2219 0.0000
0.0000 1.2990 0.0000 2.5981 0.0000 0.0000 -1.2990 0.0000 0.0000 -2.1651 0.0000 0.0000 0.0000 0.0000 0.0000 0.0000 0.0000 0.0000 0.0000 -17.3205 0.0000 0.0000 5.1962 0.0000 0.0000 0.0000 0.0000 0.0000 17.3205 0.0000 0.0000 0.0000 0.0000 0.0000 0.0000 0.0000 0.0000 25.9808 0.0000 0.0000 -22.5000 0.0000 0.0000 -7.7942 0.0000 0.0000 -25.9808 0.0000 0.0000 0.0000 0.0000 0.0000 7.7942 0.0000
0.0000 1.2135 0.0000 2.4271 0.0000 0.0000 -1.2135 0.0000 0.0000 -2.0225 0.0000 0.0000 0.0000 0.0000 0.0000 0.0000 0.0000 0.0000 0.0000 -16.1803 0.0000 0.0000 4.8541 0.0000 0.0000 0.0000 0.0000 0.0000 16.1803 0.0000 0.0000 0.0000 0.0000 0.0000 0.0000 0.0000 0.0000 24.2705 0.0000 0.0000 -23.8168 0.0000 0.0000 -7.2812 0.0000 0.0000 -24.2705 0.0000 0.0000 0.0000 0.0000 0.0000 7.2812 0.0000
0.0000 1.1147 0.0000 2.2294 0.0000 0.0000 -1.1147 0.0000 0.0000 -1.8579 0.0000 0.0000 0.0000 0.0000 0.0000 0.0000 0.0000 0.0000 0.0000 -14.8629 0.0000 0.0000 4.4589 0.0000 0.0000 0.0000 0.0000 0.0000 14.8629 0.0000 0.0000 0.0000 0.0000 0.0000 0.0000 0.0000 0.0000 22.2943 0.0000 0.0000 -25.0370 0.0000 0.0000 -6.6883 0.0000 0.0000 -22.2943 0.0000 0.0000 0.0000 0.0000 0.0000 6.6883 0.0000
0.0000 1.0037 0.0000 2.0074 0.0000 0.0000 -1.0037 0.0000 0.0000 -1.6728 0.0000 0.0000 0.0000 0.0000 0.0000 0.0000 0.0000 0.0000 0.0000 -13.3826 0.0000 0.0000 4.0148 0.0000 0.0000 0.0000 0.0000 0.0000 13.3826 0.0000 0.0000 0.0000 0.0000 0.0000 0.0000 0.0000 0.0000 20.0739 0.0000 0.0000 -26.1472 0.0000 0.0000 -6.0222 0.0000 0.0000 -20.0739 0.0000 0.0000 0.0000 0.0000 0.0000 6.0222 0.0000
0.0000 0.8817 0.0000 1.7634 0.0000 0.0000 -0.8817 0.0000 0.0000 -1.4695 0.0000 0.0000 0.0000 0.0000 0.0000 0.0000 0.0000 0.0000 0.0000 -11.7557 0.0000 0.0000 3.5267 0.0000 0.0000 0.0000 0.0000 0.0000 11.7557 0.0000 0.0000 0.0000 0.0000 0.0000 0.0000 0.0000 0.0000 17.6336 0.0000 0.0000 -27.1353 0.0000 0.0000 -5.2901 0.0000 0.0000 -17.6336 0.0000 0.0000 0.0000 0.0000 0.0000 5.2901 0.0000
